# xmcd
#
# Track frame offsets:
#   150
#   13241
#   32320
#   43038
#   55411
#   74457
#   87073
#   98680
#   119645
#
# Disc length: 1802 seconds
#
# Revision: 0
# Processed by: cddbd v1.5.2PL0 Copyright (c) Steve Scherf et al.
# Submitted via: uFREEDB ActiveX Control 1.5
#
DISCID=72070809
DTITLE=Helio Reichert - Som no Sax
DYEAR=1900
DGENRE=Blues
TTITLE0=Faixa 01
TTITLE1=Faixa 02
TTITLE2=Faixa 03
TTITLE3=Faixa 04
TTITLE4=Faixa 05
TTITLE5=Faixa 06
TTITLE6=Faixa 07
TTITLE7=Faixa 08
TTITLE8=Faixa 09
EXTD=
EXTT0=
EXTT1=
EXTT2=
EXTT3=
EXTT4=
EXTT5=
EXTT6=
EXTT7=
EXTT8=
PLAYORDER=
